<?xml version="1.0" encoding="UTF-8"?>
<!DOCTYPE svg PUBLIC "-//W3C//DTD SVG 1.1//EN" "http://www.w3.org/Graphics/SVG/1.1/DTD/svg11.dtd">
<!-- Creator: CorelDRAW -->
<svg xmlns="http://www.w3.org/2000/svg" xml:space="preserve" width="155mm" height="155mm" version="1.1" style="shape-rendering:geometricPrecision; text-rendering:geometricPrecision; image-rendering:optimizeQuality; fill-rule:evenodd; clip-rule:evenodd"
viewBox="0 0 15483.3 15483.3"
 xmlns:xlink="http://www.w3.org/1999/xlink"
 xmlns:xodm="http://www.corel.com/coreldraw/odm/2003">
 <defs>
  <style type="text/css">
   <![CDATA[
    .fil0 {fill:#474F49}
    .fil1 {fill:#373435;fill-rule:nonzero}
    .fil2 {fill:#474F49;fill-rule:nonzero}
   ]]>
  </style>
 </defs>
 <g id="Camada_x0020_1">
  <metadata id="CorelCorpID_0Corel-Layer"/>
  <g id="_2344544705520">
   <rect class="fil0" x="7012.63" y="1588.18" width="1554.76" height="961.82" rx="203.33" ry="319"/>
   <rect class="fil0" x="6847.95" y="493.91" width="1877.6" height="1400.79"/>
   <path class="fil1" d="M7741.66 499.46c-1999.89,0 -3810.46,810.62 -5121.03,2121.17 -1310.56,1310.56 -2121.17,3121.12 -2121.17,5121.01 0,1999.89 810.62,3810.46 2121.17,5121.03 1310.57,1310.56 3121.13,2121.17 5121.03,2121.17 1999.88,0 3810.45,-810.62 5121.01,-2121.17 1310.56,-1310.57 2121.17,-3121.13 2121.17,-5121.03 0,-1999.88 -810.62,-3810.45 -2121.17,-5121.01 -1310.56,-1310.56 -3121.12,-2121.17 -5121.01,-2121.17zm-5474.16 1768.03c1400.97,-1400.96 3336.39,-2267.49 5474.16,-2267.49 2137.75,0 4073.19,866.54 5474.14,2267.49 1400.96,1400.96 2267.49,3336.39 2267.49,5474.14 0,2137.77 -866.54,4073.2 -2267.49,5474.16 -1400.96,1400.96 -3336.39,2267.49 -5474.14,2267.49 -2137.77,0 -4073.2,-866.54 -5474.16,-2267.49 -1400.96,-1400.97 -2267.49,-3336.39 -2267.49,-5474.16 0,-2137.75 866.54,-4073.19 2267.49,-5474.14z"/>
   <path class="fil0" d="M7109.97 1792.24c1.9,164.67 3.8,329.28 5.69,493.95 154.97,191.93 309.99,383.82 464.96,575.75 -5.57,624.5 12.56,1250 -16.76,1873.45 -1.45,31.3 -47.49,26.46 -72.64,25.45 -34.36,-1.36 -67.55,-17.55 -99.77,-32.4 -34.56,-15.9 -65.7,-41.96 -99.77,-59.47 -32.54,-16.75 -65.26,-34.66 -99.78,-43.27 -45.54,-11.32 -92.46,-12.43 -138.82,-16.19 -63.55,-5.18 -127.43,-17.71 -190.86,-10.82 -53.42,5.78 -106.2,24.5 -156.19,48.65 -47.65,23.05 -93.84,53.28 -134.45,91.87 -45.51,43.26 -90.33,91.51 -121.46,151.38 -21.16,40.71 -24.06,92.67 -30.37,140.52 -9.65,73.2 -15.26,147.46 -17.36,221.62 -2.18,77.43 2.71,154.95 4.32,232.38 1.26,59.47 6.95,119.03 4.37,178.4 -1.74,40.2 14.69,113.9 -17.36,118.88 -39.54,6.19 -59.24,-66.81 -86.78,-102.68 -34.68,-45.18 -67.03,-93.18 -99.77,-140.52 -48.22,-69.73 -93.92,-142.18 -143.15,-210.8 -96.83,-134.97 -197.78,-265.48 -295,-399.96 -73.37,-101.48 -166.85,-186.6 -216.92,-308.1 -13.73,-33.36 29.56,-67.07 52.08,-91.92 29.16,-32.15 65.66,-52.37 99.78,-75.67 39.69,-27.11 83.18,-45.58 121.46,-75.67 44.49,-35.01 87.22,-74.3 125.81,-118.88 39.82,-45.93 73.25,-99.86 108.42,-151.33 31.29,-45.84 66.74,-88.59 91.13,-140.57 31.05,-66.16 53.86,-138.25 73.73,-210.8 19.26,-70.23 29.8,-143.88 43.36,-216.18 13.86,-73.61 28.63,-147.16 39.05,-221.62 11.27,-80.54 19.79,-161.85 26.04,-243.2 8.16,-106.06 54.15,-222.77 17.36,-318.92 -21.28,-55.69 -97.99,-21.64 -147.5,-21.64 -91.25,0 -183.31,2.98 -273.33,21.64 -58.63,12.13 -115.24,39.14 -169.18,70.23 -62.35,35.92 -122.27,79.54 -177.87,129.75 -60.57,54.74 -115.89,118.38 -169.19,183.78 -39.41,48.35 -72,104.85 -108.42,156.72 -24.26,34.56 -47.68,135.22 -73.77,102.73 -60.8,-75.77 -52.24,-204.61 -86.77,-302.71 -53.75,-152.7 -108.05,-306.34 -177.83,-448.62 -42.28,-86.19 -100.67,-158.88 -156.19,-232.44 -35.77,-47.39 -74.62,-91.96 -117.13,-129.69 -63.39,-56.25 -129.74,-108.42 -199.55,-151.34 -42.19,-25.96 -88.83,-39.9 -134.49,-54.08 -75.92,-23.64 -151.75,-55.39 -229.92,-59.42 -236.93,-12.23 -495.08,-110.13 -711.42,10.82 -90.29,50.46 26.16,244.66 34.68,367.51 10.21,147.46 5,296.68 21.68,443.23 16.64,146.25 44.5,290.74 78.1,432.41 15.75,66.46 44.82,127.03 69.42,189.17 24.58,62.18 46.11,127.08 78.09,183.78 33.55,59.47 76.93,109.52 117.14,162.15 45.1,59.02 89.35,119.64 138.82,172.97 47.65,51.36 100.06,95.79 151.83,140.51 37.87,32.75 83.01,53.23 117.13,91.87 30.61,34.66 79.18,73.25 73.73,124.32 -6.05,56.85 -61.01,88.05 -99.77,118.93 -50.72,40.4 -113.06,53.68 -164.82,91.87 -58.72,43.31 -109.79,101.12 -164.87,151.33 -41.74,38.04 -84.96,74.01 -125.77,113.55 -24.23,23.49 -51.08,44.98 -69.42,75.67 -32.9,54.99 -59.84,115.82 -82.45,178.35 -29.64,82.06 -57.42,166.33 -73.73,254.02 -21.45,115.17 -35.21,233.24 -39.05,351.37 -3.4,104.65 -1.09,211.3 17.36,313.48 18.09,100.16 48.82,198.32 91.09,286.46 29.89,62.33 75.55,111.99 121.46,156.77 54.63,53.27 116.57,94.48 177.87,135.08 53.14,35.16 106.76,72.14 164.83,91.91 48.98,16.7 101.14,19.37 151.86,16.2 65.74,-4.08 132.33,-13.64 195.19,-37.83 55.61,-21.39 107.21,-58.22 156.19,-97.31 44.09,-35.21 85.16,-77.23 121.46,-124.32 35.04,-45.48 69.81,-94.13 91.09,-151.34 25.8,-69.33 37.63,-146.19 47.73,-221.61 8.8,-65.81 13.09,-133.48 8.68,-199.98 -4.29,-64.39 -9.05,-132.97 -34.68,-189.17 -24.27,-53.17 -65.05,-95.79 -108.46,-124.32 -39.09,-25.7 -85.97,-34.36 -130.14,-32.45 -40.7,1.76 -85.6,11.22 -117.13,43.26 -28.55,29.03 -40.51,79.28 -47.73,124.32 -9.05,56.5 -4.37,115.62 0,172.96 4.32,56.6 34.96,111.79 26.04,167.54 -7.02,43.81 -43.32,71.99 -69.41,102.68 -26.25,30.89 -52.01,68.98 -86.78,81.1 -41.75,14.53 -88.43,9.46 -130.14,-5.38 -41.72,-14.84 -77.61,-49.51 -112.78,-81.1 -27.38,-24.55 -55.4,-51.21 -73.77,-86.49 -20.19,-38.69 -26,-86.53 -39.05,-129.69 -11.47,-37.84 -27.86,-73.96 -34.68,-113.51 -9.17,-53.12 -12.28,-107.86 -13.05,-162.2 -0.69,-48.75 1.46,-98 8.68,-145.9 5.89,-39.19 16.07,-77.88 30.37,-113.5 12.03,-29.94 31.17,-54.74 47.73,-81.1 25.35,-40.3 50.27,-81.2 78.09,-118.88 21.45,-29.08 44.34,-57 69.42,-81.1 25.68,-24.69 56.29,-40.85 82.41,-64.85 28.91,-26.51 52.93,-61.02 82.45,-86.48 27.1,-23.39 56.66,-42.61 86.74,-59.47 27.9,-15.65 57.54,-26.46 86.78,-37.84 40.18,-15.64 80.35,-32 121.46,-43.26 44.29,-12.18 89.11,-27.02 134.49,-27.02 51.08,0 100.87,22.5 151.83,27.02 50.44,4.48 102.81,-15.49 151.83,0 50.76,16.05 94.89,56.4 138.82,91.92 38.8,31.39 75.51,67.72 108.45,108.11 58.35,71.54 110.44,150.78 164.87,227 62.66,87.75 119.84,181.77 186.51,264.83 63.75,79.44 140.15,142.18 203.91,221.62 37.83,47.14 66.34,104.69 99.77,156.76 24.39,37.99 52.45,72.7 73.73,113.5 16.56,31.7 62.14,78.14 39.05,102.69 -57.74,61.37 -146.17,52.27 -216.92,86.48 -52.41,25.36 -103.29,56.5 -151.82,91.87 -45.67,33.25 -94.78,64.5 -130.15,113.5 -31.58,43.72 -48.25,101.78 -65.05,156.77 -18.08,59.21 -30.56,121.29 -39.04,183.78 -7.47,55.14 -4.17,111.89 -8.68,167.53 -4.13,50.67 -15.1,100.52 -17.37,151.39 -3.51,79.13 -12.44,160.09 0,237.81 9.74,60.82 38.2,115.36 65.09,167.53 25.52,49.46 61.01,89.85 91.1,135.13 32.1,48.35 59.03,102.58 95.41,145.95 30.74,36.62 69.26,61.52 104.14,91.86 27.26,23.69 52.98,50.97 82.41,70.28 25.89,17 55.97,22.24 82.42,37.84 28.67,16.9 56.97,35.92 82.45,59.47 19.7,18.21 53.98,34.35 52.04,64.85 -3.39,52.31 -39.45,93.52 -65.09,135.12 -36.78,59.68 -86.17,106.52 -121.46,167.54 -35.93,62.13 -62.78,131.96 -91.09,199.98 -30.97,74.35 -71.14,145.54 -86.78,227.05 -9.77,51.01 8.08,104.6 13.05,156.72 6.58,68.57 9.04,138.2 21.69,205.41 9.16,48.86 24.62,96.15 43.36,140.52 23.33,55.24 50.72,108.37 82.41,156.77 26.49,40.45 55.16,81.29 91.13,108.06 55.08,40.95 115.97,70.83 177.83,91.91 60.53,20.63 123.81,34.31 186.55,32.41 54.71,-1.66 108.78,-20.98 160.51,-43.21 66.06,-28.43 130.02,-65.41 190.91,-108.12 65.33,-45.78 128.36,-97.75 186.51,-156.71 66.62,-67.52 127.35,-144.09 186.55,-221.62 53.7,-70.33 102.03,-146.95 151.82,-221.61 49.96,-74.86 100.02,-149.73 147.51,-227.01 42.19,-68.67 69.33,-153.64 121.46,-210.79 24.46,-26.82 63.91,-37.48 95.45,-27.07 25.76,8.5 33.96,51.31 52.05,75.72 35.37,47.69 70.01,96.7 108.45,140.52 46.96,53.58 87.02,176.18 147.5,151.33 147.51,-60.67 215.18,-415.71 364.42,-362.13 192.69,69.18 219.13,419.39 342.7,616.15 43.48,69.28 102.44,121.35 156.18,178.4 63.39,67.32 128.85,131.87 195.19,194.6 53.66,50.77 104.75,107.97 164.86,145.9 49.79,31.4 105.11,51.01 160.51,59.47 87.59,13.34 177.71,23.99 264.64,5.38 92.38,-19.77 188.93,-50.01 264.59,-118.88 59.93,-54.54 91.78,-147.71 121.46,-232.43 30.41,-86.89 55.32,-180.86 56.41,-275.65 1.82,-154.4 -19.34,-309.16 -47.72,-459.43 -12.57,-66.66 -47.17,-123.81 -73.74,-183.78 -26.93,-60.82 -49.79,-126.32 -86.77,-178.35 -53.62,-75.47 -141.77,-112.65 -182.19,-199.98 -13.85,-29.94 27.22,-65.65 52.05,-81.1 33.99,-21.13 77.41,-4.28 112.78,-21.58 47.04,-23.05 89.23,-60.27 130.14,-97.31 48.98,-44.32 97.07,-91.36 138.82,-145.94 46.88,-61.28 89.63,-128.29 125.81,-199.98 27.86,-55.29 45.19,-117.98 65.09,-178.35 23.46,-71.19 55.6,-140.17 65.05,-216.24 11.11,-89.04 7.03,-181.26 -4.32,-270.27 -9.13,-71.43 -35.45,-137.9 -56.41,-205.36 -13.78,-44.38 -27.34,-89.55 -47.73,-129.75 -24.71,-48.71 -53.66,-94.84 -86.74,-135.08 -29.6,-35.97 -63.07,-68.18 -99.77,-91.92 -36.5,-23.64 -77.98,-33 -117.13,-48.65 -41.79,-16.7 -83.51,-34.11 -125.82,-48.65 -25.68,-8.81 -52.57,-11.98 -78.1,-21.59 -22.33,-8.4 -56.53,-5.38 -65.05,-32.45 -11.79,-37.48 -2.3,-86.94 17.32,-118.93 39.94,-65.01 104.91,-99.47 151.87,-156.72 93.56,-114.11 175.2,-242.9 268.96,-356.75 130.47,-158.38 263.2,-314.64 403.42,-459.43 71.31,-73.65 148.6,-139.36 229.92,-194.6 62.66,-42.56 128.64,-86.79 199.54,-97.25 55.72,-8.25 109.87,29.23 164.87,43.21 65,16.55 133.37,18.76 195.23,48.65 62.82,30.39 118.99,80.29 173.5,129.7 57.18,51.82 108.49,113.3 160.51,172.96 39.09,44.83 82.45,86.24 112.82,140.57 36.94,66.06 63.23,141.17 86.73,216.19 22.94,73.3 50,148.36 52.09,227 2.34,87.9 -16.27,176.19 -39.05,259.45 -19.62,71.69 -49.3,140.37 -86.78,199.98 -31.62,50.31 -72.27,93.37 -117.13,124.32 -38.04,26.26 -82.49,48.25 -125.82,43.26 -40.54,-4.63 -76.72,-38.44 -108.41,-70.28 -21.85,-21.94 -35.21,-55.24 -47.73,-86.48 -18.01,-44.88 -32.9,-92.12 -43.4,-140.52 -8.36,-38.59 -10.06,-79.13 -13.01,-118.93 -4.24,-57.51 5.97,-118.18 -8.68,-172.97 -12.44,-46.48 -38.4,-88.79 -69.41,-118.88 -23.82,-23.09 -56.66,-35.21 -86.74,-32.45 -51.12,4.67 -106.04,16.6 -147.5,54.08 -37.35,33.7 -57.1,92.32 -73.78,145.9 -21.44,68.88 -39.77,142.38 -39.04,216.23 0.72,70.79 28.95,136.94 43.4,205.37 12.97,61.27 12.24,129.95 39.05,183.78 27.54,55.24 75.67,90.15 117.09,129.7 45.51,43.47 90.29,91.36 143.19,118.93 55.96,29.18 118.1,35.62 177.87,48.65 47.32,10.32 95.26,26.31 143.15,21.64 63.63,-6.23 127.15,-25 186.55,-54.08 63.23,-30.94 119.8,-80.29 177.87,-124.32 41.78,-31.7 89.15,-56.95 121.46,-102.68 33.3,-47.15 44.49,-112.95 69.41,-167.54 28.59,-62.58 70.74,-116.41 91.09,-183.78 22.3,-73.7 29.6,-153.89 34.73,-232.43 6.45,-98.76 8.6,-198.78 0,-297.29 -7.39,-84.67 -27.34,-167.33 -47.73,-248.63 -23.06,-91.96 -45.02,-185.94 -82.45,-270.26 -24.27,-54.74 -64.61,-95.95 -99.78,-140.52 -47.28,-59.97 -92.91,-123.52 -147.46,-172.96 -57.58,-52.17 -124.85,-85.48 -186.55,-129.7 -43.81,-31.4 -87.5,-63.44 -130.14,-97.31 -41.23,-32.74 -96.15,-50.56 -121.46,-102.68 -14.69,-30.29 4.37,-74.71 21.69,-102.73 23.98,-38.8 61.33,-62.03 95.41,-86.49 51.52,-36.98 110.68,-56.85 160.51,-97.26 46.4,-37.63 85.93,-87.39 125.82,-135.12 33.95,-40.66 64.93,-85.13 95.46,-129.75 44.65,-65.31 91.09,-129.35 130.14,-199.98 34.88,-63.09 67.07,-129.45 91.09,-199.98 21.08,-61.93 27.42,-130.3 43.36,-194.55 15.83,-63.69 39.7,-124.37 52.09,-189.22 10.82,-56.5 11.79,-115.31 17.32,-172.96 7.43,-77.43 17.16,-154.6 21.68,-232.38 5.57,-95.3 10.22,-190.98 8.69,-286.47 -1.3,-81.35 -13.97,-161.95 -17.33,-243.25 -0.97,-23.44 22.14,-62.58 4.33,-70.28 -37.27,-16.1 -77.73,19.82 -117.14,21.64 -117.05,5.38 -234.36,-5.43 -351.37,0 -75.47,3.52 -150.9,13.33 -225.6,27.01 -62.82,11.53 -125.97,24.7 -186.51,48.65 -67.31,26.67 -130.87,66.42 -195.23,102.69 -57.18,32.2 -114.48,64.55 -169.19,102.73 -53.86,37.58 -111.2,71.59 -156.18,124.32 -53.26,62.43 -96.43,138.35 -134.46,216.19 -43.36,88.74 -72.55,187.3 -108.45,281.08 -24.79,64.7 -47.04,131.06 -73.77,194.55 -18.09,42.91 -41.43,82.21 -60.73,124.32 -9.61,20.98 -7.87,73.45 -26,64.9 -43.97,-20.78 -68.52,-80.54 -99.77,-124.32 -38.24,-53.58 -71.14,-113 -108.45,-167.58 -29.2,-42.71 -54.76,-91.16 -91.1,-124.32 -45.91,-41.9 -99.16,-70.48 -151.86,-97.31 -50.36,-25.6 -102,-52.67 -156.15,-59.42 -63.43,-7.89 -127.43,8.61 -190.9,16.2 -101.39,12.13 -242.52,-58.31 -303.65,43.21 -63.07,104.75 23.22,260.66 43.37,389.2 27.61,176.29 55.8,353.23 99.77,524.28 27.21,105.91 58.27,214.67 112.82,302.66 60.76,98.05 153.47,157.92 225.56,243.25 71.18,84.22 126.58,189.53 203.91,264.83 50.4,49.11 175.64,23 173.5,102.68 -2.83,104.45 -125.37,139.36 -182.18,216.24 -77.86,105.35 -145.32,222.17 -221.24,329.68 -61.45,87.09 -125.49,171.55 -190.9,254.07 -48.86,61.62 -98.2,123.21 -151.83,178.35 -46.39,47.75 -107.89,186.1 -147.5,129.7 -60.93,-86.79 -3.52,-230.57 -4.33,-345.89 -0.6,-86.43 12.4,-174.37 0,-259.45 -8.31,-57.05 -34.64,-108.71 -60.72,-156.76 -37.96,-69.88 -78.98,-139.31 -130.14,-194.6 -48.5,-52.42 -104.91,-95.74 -164.86,-124.32 -59.04,-28.12 -123.61,-36.12 -186.56,-43.21 -64.76,-7.3 -130.46,-7.95 -195.19,0 -53.01,6.48 -109.1,12.07 -156.18,43.21 -48.78,32.25 -78.85,96.75 -121.46,140.57 -48.58,49.96 -145.6,218.64 -151.83,140.52 -55.48,-695.59 -2.91,-1398.12 -4.36,-2097.18 143.15,-178.35 286.32,-356.76 429.47,-535.1 0,-165.77 0,-331.49 0,-497.26 -442.31,-4.03 -884.66,-8 -1326.96,-12.03zm668.25 6373.13c18.83,1.63 35.86,-15.28 53.14,-24.79 16.47,-9.12 31.72,-21.84 48.16,-31.05 16.74,-9.37 35.58,-13.28 51.46,-24.79 13.91,-10.13 24.42,-26.16 36.53,-39.35 10.03,-10.92 20.51,-21.33 29.87,-33.05 9.99,-12.43 19.61,-25.45 28.24,-39.34 8.52,-13.74 16.06,-28.53 23.23,-43.43 6.07,-12.63 14.06,-24.89 16.65,-39.28 3.62,-20.18 1.92,-41.42 1.62,-62.09 -0.22,-16.58 -1.23,-33.24 -3.33,-49.66 -2.31,-18.11 -5.06,-36.47 -9.95,-53.77 -5.1,-18.01 -12.47,-35 -19.96,-51.73 -7.96,-17.84 -16.99,-35.1 -26.56,-51.71 -10.3,-17.85 -20.84,-35.91 -33.18,-51.67 -10.97,-13.97 -24.56,-24.59 -36.52,-37.26 -14,-14.83 -25.85,-33.44 -41.49,-45.5 -10.87,-8.33 -24.19,-10.44 -36.54,-14.46 -17.01,-5.58 -34.11,-11.14 -51.5,-14.49 -18.06,-3.53 -36.6,-9.25 -54.77,-6.19 -19.21,3.23 -37.25,14.5 -54.77,24.8 -14.11,8.35 -28.29,17.92 -39.86,31.04 -13.64,15.5 -23.59,35.58 -34.87,53.77 -9.18,14.84 -18.22,29.96 -26.54,45.55 -11.54,21.58 -23.12,43.46 -33.21,66.14 -7.04,15.91 -14.26,32.18 -18.28,49.67 -3.76,16.7 -4.94,34.37 -4.94,51.71 0,14.59 2.47,29.19 4.94,43.46 4.08,23.01 8.54,46.09 14.95,68.23 5.21,17.98 11.86,35.48 19.92,51.73 9.12,18.41 20.6,34.9 31.58,51.72 10.63,16.22 21.39,32.59 33.19,47.58 15.29,19.47 31.34,38.34 48.15,55.85 13.64,14.16 28.48,26.74 43.15,39.3 13.5,11.56 25.16,31.74 41.49,33.08zm654.52 -48.19c-0.82,-42.1 32.27,-83.17 63.74,-98.5 27.91,-13.64 58.24,18.46 87.82,24.58 49.5,10.28 99.42,17.97 149.34,24.66 51.82,6.95 104.21,8.19 155.93,16.4 45.7,7.24 91.99,13.84 136.14,30.08 28.25,10.37 53.95,30.16 79.08,49.27 27.69,21.08 51.3,50.1 78.97,71.13 32.46,24.6 73.93,32.6 101.08,65.72 44.24,53.97 70.07,127.36 107.58,188.75 23.27,38.09 56.69,67.22 74.66,109.48 20.83,48.91 32.53,104.03 39.54,158.68 5.5,43.21 -2.17,87.59 -2.17,131.36 0,30.99 6.97,62.62 2.17,93.01 -4.91,31.24 -18.08,59.89 -30.73,87.57 -11.66,25.49 -21.84,55.47 -41.75,71.1 -18.8,14.82 -43.66,12.24 -65.86,13.72 -32.17,2.15 -64.38,-2.27 -96.63,-2.72 -29.94,-0.42 -60.11,2.2 -90.04,0 -19.18,-1.42 -39.75,-0.71 -57.1,-11 -42.15,-24.93 -80.9,-58.66 -118.59,-93 -36.41,-33.25 -71.61,-69.23 -103.21,-109.42 -35.98,-45.8 -65.36,-99.06 -98.79,-147.77 -27.28,-39.74 -59.12,-75.06 -83.46,-117.66 -17.66,-30.89 -27.83,-67.51 -41.7,-101.22 -14.64,-35.59 -26.88,-72.91 -43.95,-106.72 -18.94,-37.54 -42.93,-70.73 -63.67,-106.7 -12.88,-22.35 -25.14,-45.53 -37.36,-68.42 -11.14,-20.83 -21.12,-42.71 -32.95,-62.94 -21.83,-37.23 -67.19,-63.28 -68.1,-109.42zm-121.56 -694.03c73.34,-140.57 178.44,-251.46 272.68,-371.14 80.88,-102.67 164.05,-203.15 252.47,-295.72 44.08,-46.19 93.5,-84.66 143.89,-119.48 34.96,-24.16 73,-41.56 111.07,-56.63 38.66,-15.37 78.15,-31.46 118.62,-34.62 120.95,-9.47 243.39,-22.2 363.57,-3.14 42.22,6.69 76.34,47.99 111.07,78.65 20.4,17.95 36.21,43.02 53,66.04 16.88,23.11 34.38,46.09 47.97,72.36 12.65,24.39 26.17,50.05 30.32,78.63 4.5,31.01 -3.5,62.93 -5.03,94.39 -3.51,72.29 2.29,146.31 -10.13,217.06 -7.32,41.65 -25.8,80.73 -47.93,113.23 -21.01,30.85 -51.92,48.79 -78.29,72.36 -24.07,21.47 -48.33,42.85 -73.22,62.87 -27.25,21.93 -53.51,46.89 -83.3,62.9 -31.32,16.73 -65.65,22.94 -98.45,34.6 -43.75,15.56 -87.79,30.5 -131.31,47.2 -22.13,8.44 -42.53,26.5 -65.6,28.31 -134.39,10.76 -269.44,18.06 -403.96,9.41 -93.5,-6.04 -184.87,-37.97 -277.66,-53.47 -63.71,-10.66 -131.45,2.16 -191.91,-25.17 -23.05,-10.39 -51.23,-53.06 -37.86,-78.63zm1776.1 -3278.85c-47.49,-28.42 -95.59,-57.25 -138.51,-95.4 -57.15,-50.81 -112.55,-106.3 -160.42,-170.3 -34.88,-46.68 -59.7,-104.05 -85.69,-158.97 -25.68,-54.24 -49.17,-110.29 -69.25,-168.09 -13.45,-38.7 -25.15,-78.89 -30.99,-120.41 -5.19,-36.45 -3.67,-74.3 -1.85,-111.27 1.23,-24.55 -0.83,-52.92 10.95,-72.63 11.82,-19.83 33.39,-29.41 52.85,-34.07 25.63,-6.2 52.86,-4.54 78.37,2.27 26.38,7.03 51.37,21.83 74.76,38.58 21.37,15.29 40.13,36.06 58.34,56.8 24.44,27.77 50.15,54.95 69.27,88.53 29.82,52.59 56.28,108.85 76.56,168.09 41.85,122.26 77.7,247.88 109.35,374.76 13.43,53.7 24.62,109.58 25.52,165.77 0.34,19.65 -7.37,44.64 -21.88,52.24 -15.04,7.89 -32.69,-7.13 -47.39,-15.9zm497.07 -11.34c11.46,-231.95 73.38,-456.55 127.81,-678.81 30.25,-123.47 75.52,-241.3 125.33,-354.44 36.59,-83.01 79.87,-163.1 132.62,-231.28 55.17,-71.35 121.53,-128.89 188.04,-183.23 50.49,-41.21 106.87,-70.23 161.5,-102.13 48.24,-28.17 95.23,-62.62 147.03,-78.09 53.26,-15.89 109.19,-16.7 163.93,-14.97 39.86,1.25 85.3,-4.1 118.16,23.97 17.92,15.3 6.02,54.09 4.82,81.12 -3.62,80.34 -3.22,162.33 -19.32,240.27 -35.55,171.65 -73.26,344.93 -135,504.62 -25.87,66.97 -80.9,109.41 -122.94,162.19 -61.62,77.39 -118.99,161.25 -188.01,228.32 -59.65,57.96 -129.29,98.14 -195.28,144.17 -61.77,43.06 -124.86,83.33 -188.04,123.12 -75.04,47.28 -146.94,104.64 -226.62,138.19 -29.67,12.49 -95.95,35.89 -94.05,-3.03zm-2586.11 2862.96c-94.35,-404.34 17.91,-842.04 30.68,-1262.84 1.23,-40.1 2.29,-81.2 11.56,-119.58 11.4,-47.15 30.47,-91.16 49.93,-133.98 24.1,-53.08 50.11,-105.36 80.58,-153.04 29.89,-46.76 63.02,-90.86 99.8,-129.2 34.02,-35.42 70.99,-68.02 111.37,-90.86 31.06,-17.56 65.7,-30.03 99.83,-28.72 49.63,1.92 100.42,13.39 145.88,38.29 40.98,22.43 78,58.52 107.48,100.47 25.58,36.46 47.25,81.33 53.78,129.14 10.56,77.01 -2.51,156.3 -3.85,234.39 -1.21,70.19 6.05,141.43 -3.86,210.49 -8.18,57.06 -29.35,110.59 -49.93,162.6 -17.99,45.63 -45.01,85.03 -65.26,129.22 -20.7,45.16 -33.28,96.39 -57.58,138.69 -27.32,47.73 -64.28,85.83 -95.96,129.14 -34.8,47.55 -66.69,98.71 -103.7,143.54 -51.35,62.19 -110.1,114.51 -161.24,176.98 -85.89,105.06 -215.94,469.21 -249.54,325.27zm-1677.7 2164.01c41.29,-12.09 84.43,-15.37 124.95,-31.16 30.2,-11.77 59.35,-29.24 85.64,-51.16 31.87,-26.63 57.54,-63.45 87.46,-93.38 33.7,-33.75 70.37,-63.13 103.52,-97.8 34.11,-35.72 66.32,-74.52 98.13,-113.39 31.81,-38.91 62.44,-79.39 92.79,-120.1 33.24,-44.57 69.43,-86.45 98.15,-135.64 22.74,-38.83 35.14,-85.77 55.33,-126.72 24.43,-49.56 58.05,-92.32 78.55,-144.54 20.86,-53.23 59.51,-112.69 44.6,-168.95 -10,-37.83 -62.71,-17.69 -94.59,-20.02 -70.06,-5.06 -140.47,-4.53 -210.59,-2.19 -61.31,2.03 -122.91,6.01 -183.81,15.51 -48.13,7.56 -96.46,17.57 -142.78,35.57 -38.09,14.8 -73.63,38.84 -108.85,62.27 -32.75,21.85 -64.49,46.21 -94.54,73.38 -30.77,27.76 -60.35,58.04 -87.49,91.16 -28.31,34.49 -56.67,70.03 -78.48,111.18 -26.11,49.2 -46.02,103.49 -64.26,157.87 -12.16,36.33 -24.74,74.1 -26.79,113.4 -5.14,99.86 -7.41,201.35 5.33,300.16 4.88,37.97 24.75,72.64 46.44,100.06 16.74,21.24 41.66,30.14 64.22,39.99 23.53,10.28 48.22,19.02 73.15,20.03 12.04,0.5 22.26,-12.13 33.91,-15.52zm906.56 -1764.65c-61.15,-130.1 -152.8,-234.44 -236.16,-343.82 -72.64,-95.34 -150.61,-184.64 -231.2,-269.46 -48.12,-50.62 -99.34,-97.7 -154.11,-136.28 -60.02,-42.26 -123.85,-76.88 -188.89,-105.3 -60.47,-26.48 -122.76,-50.17 -186.47,-58.88 -57.67,-7.89 -117.2,-5.33 -173.99,9.31 -37,9.53 -70.99,34.97 -101.93,61.91 -36.02,31.42 -67.65,70.71 -96.94,111.51 -28.12,39.08 -53.7,81.51 -74.58,127.02 -15.87,34.63 -34.81,71.64 -34.81,111.49 0,76.73 10.87,155.4 34.81,226.11 17.84,52.66 55.85,91.13 86.98,133.17 39.31,53.07 75.92,111.94 124.32,151.76 46.22,38.07 100.51,60.3 154.12,77.45 85.48,27.38 173.19,44.88 261.01,55.76 79.15,9.75 159.11,7.68 238.65,6.17 81.26,-1.5 162.47,-8.9 243.6,-15.44 58.9,-4.73 118,-8.5 176.49,-18.62 42.81,-7.38 90.13,-5.52 126.79,-34.05 22.32,-17.35 45.55,-61.51 32.31,-89.8zm276.21 -302.11c-64.82,-53.87 -94.48,-154.7 -142.24,-231.47 -42.2,-67.87 -86.75,-133.58 -127.77,-202.56 -42.18,-70.88 -80.73,-145.19 -121.89,-217.03 -45.88,-80.05 -92.78,-159.28 -139.36,-238.72 -45.29,-77.28 -100.17,-147.1 -136.43,-231.47 -29.34,-68.23 -43.36,-145.51 -58.06,-220.68 -14.39,-73.54 -26.18,-148.59 -29.05,-224.21 -2.03,-53.35 6.01,-106.86 14.49,-159.19 7.05,-43.38 14.74,-87.89 31.96,-126.58 13.55,-30.53 33.98,-58.1 58.05,-75.96 32.59,-24.2 70.5,-36.11 107.41,-47 40.86,-12.08 83.07,-26.91 124.85,-21.74 56.98,7.1 115.39,23.39 165.47,57.92 62.55,43.06 119.12,102.22 165.48,169.98 49.84,72.87 89.92,157.39 118.97,245.98 32.5,99.06 61.4,204.05 63.89,311.01 9.15,384.63 1.21,770.89 -29.02,1153.81 -2.65,33.6 -44.2,76.57 -66.76,57.91zm-2034.97 -3022.94c-21.78,-54.22 -21.78,-119.38 -21.78,-180.05 0,-46.99 10.49,-93.57 21.63,-138.45 7.77,-31.24 23.21,-58.67 34.65,-88.11 10.17,-26.24 17.85,-54.43 30.3,-79.13 13.63,-27.05 31.88,-50.29 47.62,-75.5 19.82,-31.64 36.28,-67.08 59.19,-95.3 22.63,-27.91 52.11,-46.23 76.48,-71.87 22.32,-23.5 39.58,-54.65 63.52,-75.53 19.89,-17.35 42.95,-29.49 66.33,-37.8 14.27,-5.05 29.88,-3.06 44.72,-1.74 24.73,2.21 51.53,-1.32 73.62,12.56 15.94,10.03 26.54,32.67 31.73,53.94 6.35,25.76 2.19,54 1.49,80.9 -1.17,41.4 0.35,83.73 -7.25,124.07 -5.12,27.36 -19.27,51.01 -30.28,75.51 -15.37,34.21 -30.08,69.38 -49.07,100.67 -19.66,32.5 -44.23,59.98 -66.37,89.9 -16.82,22.81 -33.43,45.84 -50.52,68.32 -16.6,21.86 -33.47,43.47 -50.53,64.77 -18.97,23.63 -36.86,49.03 -57.69,70.12 -30.25,30.59 -62.64,58.01 -95.27,84.47 -19.82,16.09 -38.58,39.7 -62.05,43.16 -21.06,3.12 -51.04,-1.26 -60.47,-24.91zm-469.41 75.78c109.89,-78.64 -14.82,-317.96 -49.03,-470.05 -41.8,-185.99 -110.88,-361.26 -177.29,-535.79 -38.17,-100.26 -74.34,-206.47 -135.85,-286.72 -73.42,-95.9 -167.37,-165.71 -260.28,-230.31 -101.75,-70.79 -207.9,-137.26 -320.68,-173.93 -87.7,-28.53 -186.72,-58.42 -271.58,-18.82 -36.47,17.01 -4.45,97.5 0,145.7 8.15,88.49 20.53,176.74 37.72,263.23 20.55,103.38 39.8,208.68 75.43,305.53 34.14,92.84 82.15,177.49 132.02,258.54 53.6,87.14 110.71,172.56 177.36,244.43 65.11,70.17 143.38,119.06 215.02,178.57 49.05,40.73 93.25,92.39 147.14,122.23 139.56,77.27 297.59,292.13 430.03,197.41z"/>
   <path class="fil0" d="M2722.02 4696.98c25.68,32.79 72.92,16.09 109.71,15.59 55.6,-0.76 114.64,6.59 166.16,-19.52 43.12,-21.84 72.84,-73.45 103.45,-117.17 20.03,-28.58 43.24,-60.03 47.04,-97.65 6.09,-59.92 0.2,-124.17 -18.82,-179.71 -21.97,-64.14 -61.73,-117.42 -100.34,-167.94 -44.41,-58.16 -90.24,-119.03 -147.34,-156.26 -55.44,-36.17 -119.6,-50.06 -181.82,-58.56 -71.67,-9.81 -144.51,-4.28 -216.31,3.93 -65.53,7.44 -134.7,8.5 -194.38,42.96 -59.2,34.21 -104.58,98.4 -150.45,156.21 -43.37,54.63 -83.83,114.16 -116.01,179.66 -22.78,46.39 -32.5,101.07 -47,152.34 -16.79,59.42 -35,118.53 -47.04,179.71 -14.13,71.9 -30.93,144.74 -31.34,218.75 -0.6,106.06 6.26,213.87 28.19,316.35 20.35,95.14 60.13,182.52 97.19,269.51 43.53,102.13 86.66,206.17 144.23,296.88 45.83,72.24 109.87,123.47 163,187.46 73.29,88.29 186.88,147.91 216.32,269.56 15.78,65.2 -72.12,103.89 -116.01,144.49 -66.62,61.62 -143.94,103.13 -213.16,160.14 -63.63,52.42 -127.39,105.7 -184.97,167.98 -38,41.11 -82.21,82.11 -100.3,140.62 -22.61,73.15 -21.93,156.36 -15.7,234.35 5.4,67.97 22.61,136.24 50.19,195.3 29,62.08 73.21,111.94 115.97,160.14 45.38,51.16 98.56,90.71 147.34,136.74 58.79,55.5 112.69,119.89 175.56,167.94 48.66,37.13 105.07,55.84 156.75,85.93 91.46,53.23 277.52,38.44 272.76,164.06 -7.83,206.27 -219.33,314.19 -297.83,496.05 -50.16,116.21 -68.97,251.76 -81.52,382.82 -10.67,111.28 -5.17,226.04 12.56,335.92 20.23,125.52 53.94,248.98 100.3,363.24 52.65,129.9 108,265.28 194.38,363.24 58.95,66.86 144.39,89.9 222.56,109.37 106.8,26.61 218.77,50.97 326.06,27.37 61.33,-13.49 117.26,-69.78 153.6,-132.82 49.79,-86.39 158.49,-227.15 94.04,-296.88 -115.04,-124.47 -307.28,-28.28 -451.43,-89.8 -84.23,-35.92 -162.6,-106.81 -216.31,-195.31 -48.41,-79.79 -61.45,-186.65 -75.23,-285.15 -10.58,-75.67 -8.11,-154.9 3.12,-230.42 15.14,-102.03 37.59,-204.36 75.26,-296.88 33.39,-81.95 85.89,-149.98 134.78,-218.75 48.5,-68.22 96.19,-140.31 156.75,-191.37 73.89,-62.33 159.7,-99.71 241.39,-144.54 77.2,-42.41 154.04,-88.09 235.12,-117.17 90,-32.3 182.67,-55.29 275.91,-66.41 92.55,-11.07 186.59,-12.73 279.02,0 88.42,12.18 178.63,30.04 260.2,74.21 72.84,39.45 136.51,104.09 194.34,171.9 49.91,58.57 95.25,126.43 125.41,203.11 27.46,69.72 34.6,149.77 43.89,226.55 12.68,104.64 26.32,210.69 21.93,316.35 -5.01,120.09 -23.82,239.77 -50.16,355.49 -17.84,78.44 -45.22,154.8 -81.52,222.62 -31.54,58.97 -99.77,218.95 -119.12,152.35 -55.07,-189.83 8,-405.2 -12.52,-605.44 -10.05,-98.4 -40.66,-193.89 -78.38,-281.23 -22.05,-51.01 -55.88,-98.36 -97.19,-124.98 -53.34,-34.36 -116.21,-39.49 -175.57,-50.82 -56.93,-10.87 -115.36,-25.45 -172.41,-15.59 -65.45,11.32 -132.48,33.65 -188.13,78.09 -44.33,35.41 -72.15,96.85 -100.3,152.34 -29.68,58.56 -56.81,120.94 -72.11,187.51 -13.29,57.76 -27.94,122.76 -12.52,179.66 15.34,56.75 53.01,109.22 97.2,132.82 37.63,20.08 84.19,3.22 122.22,-15.59 51.16,-25.36 92.43,-74.76 137.98,-113.3 35.93,-30.44 63.63,-85.18 106.56,-93.73 27.42,-5.48 52.09,31.09 68.97,58.56 22.17,36.07 36.66,80.49 43.89,125.03 9.73,59.97 9.61,122.5 6.3,183.58 -5.05,93.07 -11.15,187.45 -31.38,277.3 -30.21,134.09 -71.02,264.93 -119.12,390.61 -39.93,104.35 -88.66,204.16 -144.18,296.83 -55.73,93.03 -130.51,166.58 -188.13,257.84 -65.94,104.45 -131.15,211.15 -181.82,328.08 -34.68,80.04 -59.36,168.23 -72.12,257.78 -26.08,182.88 -46.39,368.92 -43.88,554.67 0.68,50.67 26.2,98.96 53.29,136.69 28.19,39.24 65.54,73.35 106.61,85.93 32.02,9.81 66.1,-9.76 97.19,-23.39 43.61,-19.12 82.66,-52.11 125.37,-74.25 50.36,-26.06 99.57,-61.38 153.64,-70.28 74.58,-12.28 151.06,-3.58 225.72,7.79 79.5,12.13 156.87,41.01 235.13,62.49 54.47,14.93 107.97,35.66 163,46.88 72.64,14.84 145.85,28.58 219.46,31.25 34.84,1.26 69.41,-10.16 103.45,-19.52 46.51,-12.78 92.55,-28.78 137.93,-46.89 39.37,-15.69 80.59,-28.12 116,-54.69 62.63,-46.99 122.07,-101.87 175.53,-164 70.33,-81.71 147.22,-161.25 194.38,-265.64 26.24,-58.11 18.25,-132.57 15.66,-199.18 -1.65,-43.21 -15.7,-84.67 -28.22,-125.03 -19.91,-64.04 -37.63,-130.95 -68.97,-187.45 -37.39,-67.42 -88.51,-121.4 -134.78,-179.71 -46.76,-58.92 -92.39,-119.94 -144.23,-171.86 -44.7,-44.77 -94.45,-81.65 -144.19,-117.17 -43.36,-30.94 -86.33,-66.76 -134.78,-82 -56.85,-17.86 -117.01,-12.03 -175.56,-15.64 -46.96,-2.88 -94.04,-3.13 -141.09,-3.93 -26.08,-0.46 -64.84,27.82 -78.38,0 -18.04,-37.13 -6.49,-95.44 15.67,-128.9 42.07,-63.49 113.42,-86.23 163,-140.61 55.48,-60.88 106.28,-129.3 150.5,-203.11 60.64,-101.27 114.88,-209.03 163,-320.27 46.15,-106.7 86.7,-217.79 119.16,-332.04 33.55,-118.18 67.35,-238.62 78.37,-363.24 10.1,-114.01 -5.08,-229.76 -15.7,-343.72 -8.2,-88.24 -19.58,-176.89 -40.75,-261.71 -22.89,-91.87 -54.22,-180.92 -90.89,-265.59 -49.26,-113.8 -103.2,-225.34 -166.15,-328.12 -72.28,-117.98 -148.23,-234.8 -238.27,-332 -106.68,-115.16 -226.29,-211.65 -347.98,-300.81 -157.88,-115.66 -328.28,-203.1 -489.02,-312.47 -156.96,-106.8 -304.94,-233.99 -464,-335.92 -93.31,-59.83 -196.16,-93.98 -291.57,-148.42 -91.78,-52.37 -183.4,-106.46 -269.61,-171.85 -58.55,-44.37 -111.37,-100.07 -163.01,-156.21 -55.11,-59.88 -109.42,-121.96 -156.75,-191.43 -47.08,-69.08 -91.49,-142.43 -125.37,-222.62 -39.73,-94.13 -69.64,-194.95 -94.04,-296.88 -14.45,-60.47 -21.04,-124.37 -21.97,-187.46 -1.13,-75.77 -5.2,-155.41 15.67,-226.55 19.22,-65.5 62.58,-116.46 100.33,-167.99 28.47,-38.89 57.95,-82 97.2,-101.52 28.14,-14.03 62.26,-4.73 90.89,7.79 29.8,13.04 58.71,35.62 78.38,66.42 18.74,29.33 24.47,68.97 31.34,105.45 8.88,47.34 -11.55,109.82 15.7,144.54zm360.89 2958.94c88.17,40.56 159.8,-125.33 245.93,-172.37 101.63,-55.48 208.16,-96.95 315.02,-134.03 141.81,-49.19 311.4,-16.35 430.32,-124.46 48.83,-44.38 -91.12,-102.53 -146,-134.04 -340.88,-195.79 -670.89,-444.82 -1037.39,-545.71 -104,-28.63 -196.43,106.9 -284.29,181.88 -100.39,85.67 -342.15,169.09 -276.63,296.83 162.95,317.71 469.16,501.33 753.05,631.89zm837.56 3619.4c143.27,117.98 342.52,34.21 513.92,48.55 127.46,10.68 254.94,29.13 382.71,26.52 85.74,-1.77 173.04,-9.31 255.19,-39.74 63.36,-23.45 132.97,-54.39 173.68,-119.25 20.81,-33.15 -7.1,-85.43 -21.26,-123.67 -14.88,-40.03 -36.25,-78.23 -63.82,-105.95 -41.17,-41.35 -91.27,-66.85 -138.21,-97.15 -55.79,-35.97 -110.93,-75.27 -170.13,-101.58 -77.15,-34.26 -156.05,-67.91 -237.45,-79.48 -96.24,-13.68 -195.81,-20.18 -290.62,4.42 -73.46,19.08 -139.57,71.84 -202,123.67 -48.67,40.42 -99.73,86.08 -127.6,150.13 -41.68,95.77 -147.3,253.46 -74.41,313.53z"/>
   <path class="fil0" d="M12865.85 4692.58c41.03,-51.67 -0.4,-146.45 10.95,-217.8 5.69,-35.77 18.61,-72.14 39.33,-97.95 20.71,-25.81 49.59,-44.12 78.62,-49.01 32.86,-5.53 67.92,2.62 98.32,19.07 27.01,14.59 49.34,42.11 67.71,70.73 25.89,40.36 42.4,88.85 63.36,133.38 18.33,38.94 44.21,73.86 54.63,117.07 16.96,70.28 24.95,144.38 26.2,217.75 0.89,52.31 -5.28,106 -19.66,155.15 -20.28,69.38 -54.43,131.31 -83.02,195.96 -34,76.88 -62.22,158.83 -104.87,228.65 -75.87,124.27 -158.28,243.46 -249.05,351.12 -47.08,55.84 -104.26,98.1 -161.64,136.08 -368.94,244.36 -746.56,468.09 -1116.35,710.43 -160.43,105.15 -322.02,209.13 -474.09,332.09 -97.75,79.03 -197.7,161.5 -273.08,272.18 -138.62,203.56 -266.46,422.86 -362.64,661.43 -66.83,165.82 -99.09,352.53 -120.13,536.21 -11.47,100.16 9.65,202.54 24.02,302.1 22.78,157.68 40.54,319.02 87.38,468.19 44.42,141.57 107,276.3 183.52,394.67 123.69,191.38 284.71,341.31 412.87,528.06 12.76,18.61 19.42,69.97 0,73.5 -137.61,25.1 -279.46,-20.63 -417.27,2.72 -53.54,9.06 -99.37,54.89 -144.15,92.52 -78.74,66.16 -154.2,138.96 -225.03,217.8 -59.16,65.8 -115.57,136.64 -163.86,215.02 -46.15,74.87 -98.6,150.99 -117.98,242.25 -20.68,97.34 -23.45,206.62 2.22,302.11 20.15,74.91 78.75,125.31 126.71,176.94 59.76,64.29 124.09,124.02 194.42,168.74 106.2,67.52 213,158.73 332.07,166.02 245.82,15.04 488.66,-76.27 734.01,-100.67 74.05,-7.34 150.25,-14.08 222.85,5.43 105.15,28.23 197.77,112.35 303.64,136.09 44.82,10.06 101.47,2.52 133.29,-38.09 38.45,-49.05 43.69,-127.93 50.24,-196.01 8.92,-92.77 8.64,-188.31 -4.37,-280.33 -21.48,-151.94 -52.61,-303.01 -98.31,-446.4 -40.79,-127.89 -97.28,-248.28 -159.46,-362.03 -75.19,-137.6 -176.5,-251.25 -251.24,-389.25 -63.43,-117.07 -115.2,-244.06 -161.68,-372.9 -31.7,-87.9 -54.18,-181.16 -72.07,-274.89 -21.53,-112.7 -60.65,-228.56 -45.91,-342.97 12.4,-96.44 44.17,-243.1 122.35,-250.39 110.11,-10.26 184.28,153.34 284.02,212.31 31.17,18.41 69.25,26.86 102.68,16.3 26.49,-8.35 54.15,-35.12 61.13,-68.03 19.26,-90.45 38.36,-192.18 13.13,-280.38 -27.38,-95.74 -102.73,-158.42 -159.5,-231.37 -36.66,-47.09 -71.79,-101.88 -120.13,-127.94 -48.41,-26.11 -104.58,-23.79 -157.31,-21.74 -62.55,2.47 -126.91,8.51 -185.66,35.37 -50.8,23.19 -95.86,65.71 -135.47,111.59 -33.59,38.89 -63.03,86.13 -80.83,138.8 -28.07,82.91 -43.69,172.36 -54.59,261.32 -13.9,113.25 -12,228.8 -19.67,342.96 -3.19,47.29 4.64,99.56 -13.13,141.57 -7.87,18.62 -41.67,26.26 -50.23,8.15 -53.3,-112.99 -87.63,-239.27 -117.99,-364.75 -27.41,-113.25 -48.69,-230.32 -54.59,-348.39 -6.53,-130.56 -8.76,-265.28 17.45,-391.97 22.17,-107.26 70.98,-205.52 124.53,-293.96 37.67,-62.18 91.49,-107.76 144.19,-149.72 71.06,-56.6 142.86,-120.45 225.03,-144.24 110.03,-31.85 226.16,-32.2 338.61,-19.07 122.59,14.29 242.11,58.47 360.46,100.72 110.67,39.5 224.58,75.27 325.49,144.29 87.54,59.87 159.94,150.08 231.57,236.75 55.64,67.32 106.56,142.03 148.55,223.23 43.04,83.21 84.72,171.01 104.87,266.74 22.78,108.27 24.87,222.93 21.85,334.82 -2.06,76.82 -11.71,155.86 -37.11,225.89 -27.46,75.72 -69.61,144.24 -117.98,201.44 -39.29,46.44 -86.13,94.64 -139.84,103.44 -155.9,25.66 -347.62,-122.81 -471.86,-2.72 -79.78,77.13 48.78,252.41 111.41,351.11 40.38,63.64 114.07,82.36 176.98,103.44 60.64,20.33 126.01,32.5 187.88,19.02 95.01,-20.73 186.87,-65.81 273.09,-119.74 79.01,-49.4 161.31,-103.74 218.44,-187.81 55.36,-81.5 76.68,-191.37 107.04,-291.25 22.21,-73.05 42.23,-148.46 50.23,-225.94 13.21,-127.89 18.09,-257.69 13.13,-386.48 -3.8,-98.3 -10.42,-199.63 -39.33,-291.25 -31.26,-99.06 -88.79,-182.12 -137.61,-269.46 -53.17,-95.14 -128,-173.12 -168.22,-277.66 -13.45,-34.92 -8.96,-93.88 17.44,-114.31 188.45,-145.7 407.02,-222.82 598.61,-362.03 66.71,-48.45 126.47,-116.67 169.8,-196.31 47.2,-86.74 83.7,-187.31 95.46,-291.1 9.12,-80.85 -15.83,-163.05 -35.17,-241.04 -13.57,-54.78 -28.11,-115.72 -62.79,-153.39 -73.57,-79.94 -169.95,-120.44 -251.23,-187.81 -88.83,-73.6 -208.24,-117.77 -258.79,-234.8 -28.87,-66.86 30.65,-150.48 65.33,-212.86 33.43,-60.18 90.37,-93.83 133.13,-143.98 56.9,-66.72 115.33,-132.27 165.84,-206.58 42.76,-62.88 84.84,-128.94 113.06,-203.5 48.54,-128.34 101.84,-259.8 115.57,-400.67 17,-174.28 -3.92,-352.33 -25.11,-525.89 -10.02,-82.16 -31.66,-164.92 -67.84,-234.75 -43.37,-83.67 -103.37,-153.85 -165.84,-215.99 -46.84,-46.58 -102.15,-80.19 -158.28,-106.46 -69.57,-32.54 -142.1,-59.77 -216.07,-68.88 -80.07,-9.81 -163.49,-13.38 -241.18,12.53 -66.99,22.35 -130.02,69.63 -180.89,128.34 -53.83,62.13 -96.67,141.38 -125.62,225.4 -25.84,75.01 -47.64,160.89 -35.16,241.03 11.1,71.29 53.86,134.88 100.5,178.45 38.8,36.28 92.22,44.22 140.68,46.94 62.06,3.48 141.32,26.36 185.01,-28.57zm-365.22 2942.18c272.63,-134.66 670.9,-235.71 741.4,-590.37 52.51,-264.39 -309.33,-504.09 -527.42,-485.71 -422.33,35.63 -795.07,373.33 -1165.55,628.52 -35.98,24.8 8.02,122.76 45.86,142.83 65.63,34.86 142.78,-8.78 214.03,-4.72 66.59,3.83 133.65,10.52 198.69,28.54 50.38,13.92 97.04,43.71 145.2,66.64 54.99,26.23 111.57,48.46 164.34,80.96 63.44,39.04 117.71,165.83 183.45,133.32zm-2101.79 3523.62c21.24,81.6 117.58,94.79 184.08,117.02 71.51,23.89 147.63,18.71 221.68,18.71 179.12,0 358.16,-16.7 537.28,-18.71 95.17,-1.06 203.06,68.52 285.55,9.36 47.85,-34.31 8.44,-141.73 -11.3,-205.98 -23.15,-75.16 -61.34,-147.76 -112.7,-196.61 -73.89,-70.28 -161.28,-123.06 -251.72,-149.82 -113.55,-33.61 -232.95,-36.78 -349.44,-28.08 -73.65,5.48 -145.84,35.47 -214.17,70.23 -70.57,35.92 -146.93,71.19 -199.11,140.42 -49.06,65.1 -112.29,158.53 -90.16,243.45z"/>
   <rect class="fil0" transform="matrix(1.48856 -0.398858 0.398858 1.48856 7634.61 10185.6)" width="222.22" height="2806.61"/>
   <path class="fil2" d="M8761.1 14351.18l311.52 -83.47 -1114.28 -4158.53 -311.51 83.47 1114.27 4158.53zm326.32 -66.78l-340.43 91.21c-374.1,-1399.22 -750.13,-2797.94 -1124.59,-4197.07l350.05 -93.8c375.45,1398.86 750.15,2797.95 1124.61,4197.07l-9.64 2.59z"/>
   <rect class="fil0" transform="matrix(-1.48856 -0.398858 -0.398858 1.48856 7965.41 10185.6)" width="222.22" height="2806.61"/>
   <path class="fil2" d="M6843.4 14373.04l-340.43 -91.22c374.46,-1399.12 749.16,-2798.21 1124.61,-4197.07l350.05 93.8c-374.46,1399.13 -750.49,2797.85 -1124.59,4197.07l-9.64 -2.58zm-316 -105.33l311.52 83.47 1114.27 -4158.53 -311.51 -83.47 -1114.28 4158.53z"/>
   <path class="fil2" d="M7800.01 9096.51c166.81,0 317.95,66.96 427.39,175.19 109.8,108.58 177.74,258.71 177.74,424.6 0,165.9 -67.93,316.02 -177.74,424.61 -109.44,108.23 -260.57,175.2 -427.39,175.2 -166.82,0 -317.94,-66.97 -427.38,-175.2 -109.81,-108.59 -177.74,-258.72 -177.74,-424.61 0,-165.44 68.01,-315.48 177.98,-424.34l-0.24 -0.25c109.44,-108.23 260.56,-175.2 427.38,-175.2zm251.8 352.74c-64.35,-63.64 -153.38,-103.01 -251.8,-103.01 -98.4,0 -187.44,39.38 -251.79,103.02l-0.49 0c-63.7,62.98 -103.11,150.32 -103.11,247.04 0,96.41 39.6,183.78 103.6,247.06 64.35,63.64 153.38,103.02 251.79,103.02 98.41,0 187.45,-39.38 251.8,-103.02 64,-63.28 103.6,-150.65 103.6,-247.06 0,-96.4 -39.6,-183.77 -103.6,-247.05z"/>
   <rect class="fil0" transform="matrix(0.403475 -1.48731 1.48731 0.403475 6543.9 14528.7)" width="222.22" height="97.4" rx="119.87" ry="119.87"/>
   <rect class="fil0" transform="matrix(-0.517065 -1.45174 1.45174 -0.517065 8921.24 14577.3)" width="222.22" height="97.4" rx="119.87" ry="119.87"/>
   <rect class="fil0" transform="matrix(0.392192 1.49033 -1.49033 0.392192 9155.15 13608.7)" width="71.04" height="152.21"/>
   <ellipse class="fil0" transform="matrix(1.49459 -0.375607 0.375607 1.49459 9205.4 13682.8)" rx="26.77" ry="131.95"/>
  </g>
 </g>
</svg>
